<svg width="970" height="250" xmlns="http://www.w3.org/2000/svg" version="1.1">
 <style>
  path { fill: #000000; }
  @media (prefers-color-scheme: dark) {
    path { fill: #ffffff; }
  }
 </style>
 <g>
  <title>Layer 1</title>
  <g id="g1">
   <path fill="currentColor" id="path1" d="m407.50912,203.69092l0,-24.43637l2.47272,0l2.47272,0l0,2.35423l0,2.35423l1.51569,-1.36272c1.72348,-1.54956 3.99689,-2.78059 6.45438,-3.49501c2.15479,-0.6264 6.67743,-0.62459 9.03809,0.004c6.26608,1.66751 10.73221,6.45398 11.94717,12.80411c1.89743,9.91698 -3.54462,18.68292 -12.81821,20.64732c-5.32419,1.12779 -10.98248,-0.29698 -14.53958,-3.66112l-1.59753,-1.51086l0,10.36948l0,10.36945l-2.47272,0l-2.47272,0l0,-24.43674zm22.2182,3.53049c2.39264,-1.17787 4.81891,-3.73656 5.75201,-6.06589c0.58401,-1.45786 0.67413,-2.18826 0.67413,-5.4646c0,-3.27634 -0.09009,-4.00674 -0.67413,-5.46461c-0.94321,-2.35454 -3.35709,-4.88689 -5.80887,-6.09387c-1.84195,-0.90678 -2.08542,-0.95061 -5.2825,-0.95061c-3.03217,0 -3.51105,0.07471 -5.02509,0.78426c-2.05115,0.96124 -4.51617,3.24104 -5.54172,5.12529c-3.33426,6.12613 -1.42053,14.19301 4.14014,17.45177c2.52109,1.47745 3.97974,1.83064 7.06534,1.71074c2.46039,-0.09561 3.06943,-0.22939 4.70068,-1.03247zm21.12723,-3.53049l0,-24.43637l2.61823,0l2.61816,0l0,2.36948l0,2.36948l1.60358,-1.51663c2.73004,-2.58195 6.46283,-3.90106 10.92017,-3.85902c4.94257,0.0466 8.89838,1.69373 12.02307,5.00607c3.1709,3.36131 4.54407,7.00784 4.54407,12.067c0,5.04599 -1.55969,9.19691 -4.62579,12.31104c-3.35321,3.40565 -7.00397,4.84222 -12.24689,4.81915c-4.68762,-0.0206 -7.65906,-1.09378 -10.88055,-3.92944l-1.33765,-1.17746l0,10.20654l0,10.20654l-2.61816,0l-2.61823,0l0,-24.43637zm20.98755,4.07753c4.57751,-1.42863 7.61945,-5.5863 8.02667,-10.97076c0.42303,-5.59366 -2.18738,-10.52168 -6.75964,-12.761c-1.62354,-0.79512 -1.97925,-0.85486 -5.09094,-0.85486c-3.04944,0 -3.49811,0.0715 -5.07056,0.80789c-4.69519,2.19881 -7.1767,6.27942 -7.1767,11.80141c0,3.1525 0.80597,5.61653 2.60699,7.96994c1.48669,1.94273 4.20758,3.7915 6.25836,4.2524c2.12842,0.47832 5.22565,0.37302 7.20581,-0.24501zm-420.26027,4.75197c-4.35549,-0.92433 -8.35112,-3.62244 -10.6724,-7.20668c-3.59081,-5.54453 -3.55906,-13.88815 0.0735,-19.32803c1.51281,-2.26544 3.50834,-4.04601 5.9963,-5.35034c2.77021,-1.45232 5.18063,-2.01111 8.67528,-2.01111c5.4016,0 9.14473,1.4705 12.68231,4.98228c2.55298,2.53438 3.74126,4.7249 4.45772,8.21758c2.0584,10.03439 -3.63306,18.88792 -13.33536,20.74428c-2.77989,0.53189 -5.21495,0.51706 -7.8774,-0.048l0.00005,0.00003zm6.33099,-4.4529c4.86332,-0.79655 8.40165,-4.06686 9.6704,-8.93794c2.03255,-7.80348 -2.97823,-15.33694 -10.63046,-15.98236c-7.77649,-0.65593 -13.38055,4.51328 -13.44123,12.39824c-0.06499,8.44006 6.17854,13.86884 14.40129,12.52206zm96.65083,4.47308c-6.34166,-1.40871 -11.20108,-6.03531 -12.80876,-12.19514c-0.59944,-2.29675 -0.59566,-7.03848 0.007,-9.29904c1.27814,-4.79095 4.33038,-8.53337 8.62033,-10.56956c3.16832,-1.5038 4.71654,-1.85074 8.26366,-1.85176c10.32341,-0.00301 17.57999,7.04135 17.57999,17.06583c0,7.9115 -4.73318,14.33479 -12.20808,16.56725c-2.33342,0.69691 -6.96568,0.83528 -9.45454,0.28244l0.00041,0zm6.36716,-4.47897c4.81711,-0.78886 8.68108,-4.37485 9.76088,-9.05861c0.42064,-1.82457 0.36925,-5.09369 -0.10826,-6.88756c-1.36108,-5.1131 -5.52901,-8.57077 -10.82037,-8.97649c-6.83163,-0.52385 -12.36505,3.89609 -13.16469,10.51558c-1.11826,9.25714 5.4518,15.8614 14.33244,14.40707zm67.55486,4.48106c-3.27631,-0.73529 -5.573,-2.01465 -8.04276,-4.48021c-3.45624,-3.45038 -4.9209,-7.1297 -4.9295,-12.38318c-0.008,-4.8949 1.68854,-9.15965 4.91675,-12.3598c3.30789,-3.27913 6.80276,-4.675 11.72934,-4.68483c7.36844,-0.01469 12.85849,3.96562 14.89899,10.8017c0.26266,0.88 0.5567,2.94182 0.65338,4.58182l0.17581,2.98183l-13.57108,0c-15.51147,0 -14.01956,-0.3291 -13.02304,2.87276c1.09808,3.52814 3.26401,6.09128 6.38278,7.5533c1.48825,0.69766 1.98129,0.77394 5.00253,0.77394c3.19623,0 3.44098,-0.04401 5.28003,-0.94939c1.09381,-0.53848 2.69461,-1.6875 3.69864,-2.6548l1.77017,-1.70541l1.67706,1.30003c0.92239,0.71501 1.71805,1.33972 1.7681,1.38823c0.05008,0.04851 -0.68741,0.91998 -1.63876,1.9366c-1.99417,2.13089 -4.61917,3.79176 -7.32498,4.63458c-2.5658,0.79922 -6.82205,0.97664 -9.42346,0.39284zm13.95853,-20.85178c-0.28604,-1.82449 -1.68829,-4.62474 -2.94537,-5.88182c-0.60666,-0.60666 -1.83435,-1.44598 -2.72818,-1.86514c-1.44543,-0.67784 -1.97906,-0.76201 -4.82516,-0.76109c-2.93613,0.00095 -3.32678,0.0677 -4.7377,0.8102c-1.95746,1.03003 -3.56879,2.48665 -4.67068,4.22231c-0.89502,1.40979 -1.87613,4.23952 -1.57449,4.54117c0.0939,0.0939 5.00931,0.17075 10.9231,0.17075l10.75235,0l-0.19385,-1.23636zm44.88165,20.99753c-4.38672,-0.64445 -8.47229,-3.14511 -10.23581,-6.26503c-0.104,-0.18402 0.69055,-0.92366 1.85394,-1.72581l2.03598,-1.40378l0.48569,0.70764c2.84241,4.14128 9.5936,5.6956 13.49045,3.10591c1.39786,-0.92897 2.37161,-2.9292 2.20505,-4.52948c-0.24347,-2.33908 -1.87311,-3.39511 -7.67285,-4.97206c-6.9523,-1.89037 -9.44159,-3.56749 -10.56543,-7.11838c-0.51431,-1.62503 -0.23407,-4.98338 0.54224,-6.49791c1.81357,-3.53807 5.55798,-5.3688 10.95313,-5.35522c4.85718,0.01219 8.90598,1.96364 11.02972,5.31604l0.48685,0.76852l-1.91373,1.3378l-1.9137,1.33777l-1.66275,-1.69363c-1.93188,-1.96776 -3.5813,-2.66531 -6.29642,-2.66283c-2.46524,0.002 -3.8349,0.45352 -5.1774,1.70578c-1.41846,1.32315 -1.76779,3.07904 -0.95383,4.79437c0.60931,1.284 3.00745,2.55988 6.11032,3.25087c5.09482,1.13457 8.5621,2.71106 10.29672,4.68167c1.31384,1.49261 1.776,2.89841 1.776,5.40216c0,2.84355 -0.67432,4.44681 -2.74075,6.51625c-1.98337,1.98627 -3.81833,2.84395 -7.10007,3.31863c-2.20474,0.31891 -2.74545,0.31683 -5.03336,-0.0193l0,0.00002zm33.78326,-0.14227c-4.82593,-1.04024 -8.85068,-4.17122 -11.02707,-8.57834c-4.08228,-8.26657 -1.62073,-18.03354 5.79071,-22.97653c4.33563,-2.8916 11.9823,-3.18311 16.69034,-0.63626c4.91364,2.65807 7.73108,7.78926 7.74173,14.0995l0.004,2.54547l-13.33331,0c-7.33334,0 -13.40707,0.0737 -13.49719,0.16385c-0.30145,0.30144 0.65482,3.69594 1.45572,5.16748c1.16623,2.1427 3.01935,3.89154 5.23666,4.94193c1.83191,0.8678 2.16077,0.92674 5.17139,0.92674c3.12161,0 3.27811,-0.0312 5.38184,-1.07466c1.36966,-0.67934 2.74518,-1.66267 3.73923,-2.67313l1.57248,-1.59845l1.70023,1.3083c0.93515,0.71956 1.70026,1.43788 1.70026,1.59625c0,0.15837 -0.89752,1.17308 -1.99448,2.2549c-4.15952,4.10216 -10.35464,5.82152 -16.33282,4.53294l0.00031,0zm14.03018,-19.78239c0.23419,-0.23419 -0.45169,-2.98759 -1.06256,-4.2657c-0.84567,-1.76926 -2.68994,-3.62636 -4.46887,-4.49992c-1.51563,-0.74428 -1.94482,-0.81633 -4.86237,-0.81633c-2.94736,0 -3.33023,0.06601 -4.84921,0.83566c-3.05652,1.54877 -5.78836,4.97488 -6.25385,7.84314l-0.17307,1.06665l10.7532,0c5.91428,0 10.82678,-0.07359 10.91672,-0.1635zm42.1153,19.85934c-3.76852,-0.86449 -6.71613,-3.2036 -7.8606,-6.23793c-0.80576,-2.13631 -0.70746,-5.61397 0.21722,-7.6852c2.06177,-4.61827 8.22687,-6.92685 18.5173,-6.93396l3.45575,-0.00201l-0.20428,-1.80566c-0.35431,-3.13174 -1.42755,-4.86906 -3.79813,-6.14824c-1.00269,-0.54105 -1.6264,-0.62688 -4.50909,-0.62051c-3.88681,0.009 -5.5033,0.50464 -8.11429,2.49002l-1.56882,1.19292l-1.12415,-1.26334c-1.85562,-2.08545 -1.858,-2.10234 -0.46417,-3.29701c2.74072,-2.34909 6.93442,-3.68208 11.54401,-3.66931c6.26733,0.01741 10.38803,2.44518 12.27097,7.22963c0.63016,1.60121 0.66733,2.16867 0.86224,13.16425c0.11203,6.32001 0.29971,11.85648 0.41705,12.30327l0.21335,0.81235l-2.43628,-0.0851l-2.43628,-0.08511l-0.29092,-2.12796l-0.29089,-2.12796l-1.01819,1.06483c-1.47119,1.5386 -3.26111,2.70592 -5.16855,3.37077c-2.09396,0.72984 -6.06985,0.95332 -8.21326,0.46162l0,-0.00035zm8.50836,-5.07187c1.73447,-0.76675 3.57779,-2.48958 4.43286,-4.14307c0.59988,-1.16003 1.30154,-4.40199 1.30826,-6.04454l0.005,-1.23637l-3.59827,0c-7.29202,0 -11.94955,1.52028 -13.43036,4.38385c-0.64667,1.25052 -0.54303,3.61946 0.21753,4.97273c1.65283,2.9408 6.87991,3.91743 11.06491,2.0674l0.00006,0zm-256.28519,4.86568c-1.89012,-0.39542 -3.14474,-1.09848 -4.41035,-2.47151c-1.97804,-2.14594 -2.06738,-2.80188 -2.06738,-15.18002l0,-10.85629l-3.34546,0l-3.34544,0l0,-2.32727l0,-2.32729l3.34544,0l3.34546,0l0,-4.50909l0,-4.50908l2.47272,0l2.47273,0l0,4.50908l0,4.50909l4.65456,0l4.65454,0l0,2.32729l0,2.32727l-4.67114,0l-4.67114,0l0.08931,10.54544c0.09689,11.44267 0.12056,11.61592 1.74998,12.82164c1.16173,0.85965 3.49438,0.96762 5.5173,0.25542l1.6507,-0.58116l0.20372,2.174c0.11205,1.19571 0.0892,2.27724 -0.0507,2.40343c-0.78348,0.70648 -5.71059,1.28325 -7.59485,0.88907l0.00002,0zm-47.20898,-16.07147c-0.002,-8.67999 -0.0829,-16.07635 -0.17938,-16.43636c-0.17184,-0.64125 -0.12514,-0.65456 2.30013,-0.65456c2.84763,0 2.82869,-0.0177 2.82869,2.64198c0,0.94691 0.0739,1.72166 0.16423,1.72166c0.0903,0 0.4859,-0.38228 0.87904,-0.84949c0.39314,-0.46722 1.31999,-1.25037 2.05968,-1.74031c6.59013,-4.36511 15.74205,-2.6918 18.85283,3.44701c1.47372,2.90828 1.59889,4.18684 1.60355,16.37915l0.004,11.27272l-2.47272,0l-2.47273,0l-0.00499,-10.25453c-0.00601,-12.62282 -0.28497,-14.42709 -2.58415,-16.72626c-1.53079,-1.53079 -2.79407,-1.96513 -5.70171,-1.96034c-2.05023,0.00299 -2.91159,0.13899 -3.97067,0.62521c-2.879,1.32169 -5.14502,4.67921 -5.75977,8.5341c-0.16583,1.04001 -0.30254,5.91637 -0.30374,10.83636l-0.002,8.94545l-2.61819,0l-2.61818,0l-0.00391,-15.78181zm111.02408,15.55286c-0.2977,-0.48169 -13.27466,-32.14142 -13.27466,-32.38603c0,-0.14175 1.23328,-0.25774 2.7406,-0.25774l2.7406,0l3.18439,8.07274c1.7514,4.43999 4.07178,10.32684 5.15634,13.08188c1.08456,2.75502 2.06259,4.95314 2.17334,4.88467c0.11078,-0.0685 2.47159,-5.95531 5.24625,-13.08188l5.0448,-12.95741l2.74252,0c2.0752,0 2.70825,0.0885 2.60168,0.36365c-0.07742,0.2 -3.06766,7.59636 -6.64487,16.43636l-6.50403,16.07272l-2.53275,0c-1.39301,0 -2.59641,-0.10303 -2.67422,-0.22896zm63.52216,-15.11649c-0.00201,-8.44 -0.08432,-15.83636 -0.18353,-16.43637l-0.1803,-1.09091l2.4744,0l2.47446,0l0.18179,0.90909c0.10001,0.5 0.18182,1.41638 0.18182,2.03638c0,0.62 0.06271,1.12727 0.13947,1.12727c0.07669,0 0.6825,-0.58911 1.34616,-1.30911c1.55356,-1.68541 4.18951,-2.97099 6.8053,-3.319c1.76782,-0.2352 4.56378,-0.06871 4.92584,0.29335c0.06619,0.06621 -0.017,1.19528 -0.18469,2.50917c-0.29004,2.27196 -0.33383,2.37341 -0.89499,2.07309c-0.87012,-0.46567 -5.0975,-0.16528 -6.26355,0.44507c-1.54965,0.81114 -3.24661,2.50952 -4.00729,4.01067c-1.40002,2.7628 -1.56641,4.30574 -1.57101,14.56949l-0.004,9.52727l-2.61819,0l-2.61819,0l-0.00348,-15.34544zm89.8941,-1.96364l0,-2.18182l7.85455,0l7.85452,0l0,2.18182l0,2.18182l-7.85452,0l-7.85455,0l0,-2.18182zm-262.98183,-42.35742c-20.34695,-1.88055 -37.41975,-13.41835 -46.03434,-31.11002c-4.02627,-8.26871 -5.77592,-16.13733 -5.78652,-26.02347c-0.01089,-10.13304 1.59964,-17.6552 5.54328,-25.89091c2.90984,-6.0768 5.64645,-10.06446 10.05698,-14.65457c9.08701,-9.45699 20.96301,-15.23181 34.75842,-16.9016c3.63773,-0.44032 11.69693,-0.36343 15.62909,0.14909c26.26857,3.4239 45.72206,22.71575 49.07794,48.67012c0.58675,4.53792 0.59764,12.06697 0.0239,16.54024c-1.88744,14.7162 -8.92513,27.63669 -19.96858,36.66023c-6.13275,5.01102 -14.9175,9.30278 -22.79111,11.13451c-5.96849,1.38852 -14.4993,1.98183 -20.50908,1.42638l0.00002,0zm10.32727,-10.75301c19.43864,-1.69511 34.47308,-14.39403 39.412,-33.28958c1.3721,-5.24945 1.5993,-7.1505 1.5993,-13.38181c0,-6.1996 -0.21968,-8.05287 -1.58691,-13.38768c-4.29387,-16.75426 -16.86888,-28.75078 -34.04257,-32.47645c-2.67638,-0.58062 -3.88293,-0.66331 -9.74547,-0.66789c-5.25043,-0.0041 -7.25456,0.10604 -9.30908,0.5116c-4.32199,0.85313 -8.13029,2.16472 -12.02357,4.14093c-8.17825,4.15124 -14.48425,10.4033 -18.62055,18.4613c-3.91531,7.62746 -5.56339,14.5648 -5.56339,23.41819c0,10.52097 2.55731,19.25311 8.13622,27.78181c2.29391,3.50674 7.8688,9.11494 11.34404,11.41174c9.13756,6.03909 19.02065,8.47014 30.39999,7.47783zm322.32726,10.87538c-14.72946,-0.94986 -28.45038,-7.15593 -37.9946,-17.18529c-10.71448,-11.25908 -16.2334,-26.38376 -15.57693,-42.68875c0.58554,-14.54291 5.47519,-26.77946 14.89874,-37.28481c6.74728,-7.52182 17.7955,-13.83817 28.63644,-16.3717c5.87183,-1.37225 15.53671,-1.89841 21.53491,-1.17239c11.99277,1.4516 23.14001,6.29391 31.76672,13.79938c7.91895,6.88972 14.26575,17.37754 16.90723,27.93861c5.10272,20.40165 -0.13116,41.67027 -13.72699,55.7812c-11.57898,12.01773 -28.64481,18.3317 -46.44553,17.18376zm13.09091,-11.44374c13.91528,-2.36172 25.97076,-11.59926 31.98865,-24.51131c6.26031,-13.43224 6.26208,-29.88052 0.005,-43.19105c-5.90192,-12.55416 -17.01367,-21.23432 -31.07745,-24.27679c-2.54166,-0.54984 -3.88229,-0.64076 -9.64297,-0.65399c-5.84995,-0.01343 -7.10147,0.06786 -9.95718,0.64673c-7.23264,1.46611 -13.06018,4.13962 -18.84662,8.64631c-7.79172,6.06848 -13.67749,15.95453 -15.85226,26.62625c-3.17154,15.56306 0.79083,31.63071 10.54605,42.76488c6.04312,6.8974 14.78174,11.92937 23.93982,13.78531c5.54495,1.12373 12.86703,1.18713 18.89746,0.16365l-0.00049,0zm369.85681,11.35777c-7.99011,-0.77489 -15.01318,-3.43289 -21.13623,-7.99936c-2.63959,-1.96855 -7.31909,-6.5276 -8.41174,-8.19525c-0.55896,-0.85306 -0.97406,-0.37671 4.09296,-4.69728l3.74719,-3.19521l2.77917,2.89552c3.5423,3.69055 6.71082,6.08113 10.38098,7.83215c4.80359,2.29181 6.90009,2.72118 13.23633,2.71089c6.3963,-0.01039 8.25336,-0.40779 13.09094,-2.80142c2.59705,-1.28502 3.42749,-1.88376 5.54449,-3.9975c4.04846,-4.04214 5.59674,-7.73134 5.62164,-13.39517c0.02051,-4.66937 -0.8504,-7.41539 -3.40717,-10.74298c-3.11804,-4.05797 -8.47217,-7.01537 -19.54083,-10.79347c-17.08716,-5.83243 -21.89899,-8.2271 -26.63562,-13.25554c-3.04327,-3.23075 -4.80634,-6.24834 -5.9436,-10.17277c-1.95557,-6.74836 -1.34467,-15.51562 1.47107,-21.11108c4.56647,-9.07453 12.41443,-14.72247 23.86121,-17.17214c2.79395,-0.59792 3.95844,-0.67916 9.71973,-0.6781c5.15778,0.00096 7.06964,0.11118 9.01819,0.51991c8.19415,1.71883 14.56354,5.14783 19.95953,10.74532c1.36481,1.41577 2.43951,2.68047 2.38824,2.81042c-0.05133,0.12996 -1.94537,1.87885 -4.20898,3.88641l-4.11578,3.65015l-3.16785,-3.09761c-5.46442,-5.34317 -10.31256,-7.57343 -17.71997,-8.15154c-11.35547,-0.88624 -20.60815,3.5086 -24.8147,11.78651c-1.16425,2.29115 -1.7655,4.95042 -1.77075,7.83218c-0.00903,4.92451 1.18567,8.19822 4.14734,11.36423c3.82806,4.09221 7.1662,5.81326 19.12109,9.85834c14.7193,4.98047 19.52985,7.13504 24.10681,10.79704c5.37848,4.3033 8.55084,10.15221 9.36719,17.27019c0.39331,3.42885 0.21625,7.8716 -0.43579,10.93643c-2.07043,9.73198 -9.03009,17.73584 -18.85693,21.68622c-5.85059,2.35191 -14.6875,3.53406 -21.48816,2.87451zm-630.36589,-57.31535l0,-54.69091l6.76364,0.0096l6.76364,0.0096l32.58183,45.3876l32.58182,45.38759l0.07358,-45.3972l0.07361,-45.39721l5.96274,0l5.96271,0l0,54.69091l0,54.6909l-6.6604,0l-6.6604,0l-32.68506,-45.80371c-17.97678,-25.19205 -32.78322,-45.81024 -32.90323,-45.81819c-0.12,-0.008 -0.21817,20.60373 -0.21817,45.80373l0,45.81818l-5.81819,0l-5.81818,0l0.00006,-54.69087zm141.38182,5.23636l0,-49.45454l-18.18182,0l-18.18179,0l0,-5.23637l0,-5.23636l42.32727,0l42.32727,0l0,5.23636l0,5.23637l-18.18182,0l-18.18182,0l0,49.45454l0,49.45454l-5.96362,0l-5.96365,0l0,-49.45454zm194.32727,-4.98172c-11.59998,-29.93734 -21.13452,-54.54718 -21.18787,-54.68855c-0.05432,-0.14388 2.7196,-0.257 6.30231,-0.257l6.39923,0l0.992,2.54545c0.54565,1.4 8.57031,22.34463 17.83264,46.54363c9.26233,24.19901 16.93079,43.83537 17.04095,43.63638c0.11017,-0.19901 7.75189,-20.12909 16.98163,-44.28909c9.2298,-24.16 17.17206,-44.94183 17.6496,-46.18183l0.86816,-2.25454l6.33148,0l6.33148,0l-21.26172,54.68848l-21.26172,54.68848l-5.96362,0.00006l-5.96362,0.00009l-21.09094,-54.43156zm88.14551,-0.25464l0,-54.69091l34.61816,0l34.61816,0l0,5.23637l0,5.23636l-28.79999,0l-28.79999,0l0,18.32727l0,18.32729l26.90906,0l26.90912,0l0,5.38181l0,5.38182l-26.90912,0l-26.90906,0l0,20.36363l0,20.36365l29.81818,0l29.81818,0l0,5.38182l0,5.38181l-35.63635,0l-35.63641,0l0.00006,-54.6909zm90.76361,-0.0159l0,-54.70673l20.87274,0.11337c19.98834,0.10857 21.01447,0.1403 24.21814,0.74901c8.3067,1.57826 13.88782,4.27976 18.19855,8.80884c3.21332,3.37611 5.13824,6.88826 6.30798,11.50919c0.55835,2.20582 0.64612,3.30568 0.63361,7.94221c-0.01337,4.99389 -0.07098,5.56628 -0.7981,7.94083c-3.10138,10.12734 -10.5791,16.74207 -22.01477,19.47398c-2,0.4778 -3.85083,0.95219 -4.11298,1.05423c-0.38397,0.14946 2.60455,5.13336 15.37476,25.64006c8.71832,14 15.91864,25.62054 16.00073,25.82343c0.11859,0.29315 -1.30518,0.35287 -6.93433,0.29091l-7.08362,-0.078l-15.42224,-25.37505l-15.4223,-25.37503l-9.09088,-0.007l-9.09094,-0.007l0,25.45456l0,25.45453l-5.81818,0l-5.81818,0l0,-54.70633zm40.29089,-7.34779c4.02234,-0.74123 6.0238,-1.35732 8.87274,-2.73125c4.82874,-2.32867 8.0329,-6.22684 9.03845,-10.99603c0.51355,-2.43589 0.45496,-7.17662 -0.11591,-9.37445c-1.52313,-5.86383 -5.79584,-9.97861 -12.5589,-12.09476c-4.97351,-1.55618 -7.61627,-1.77917 -21.23639,-1.79185l-12.50909,-0.01165l-0.07538,18.47272c-0.0415,10.16 -0.00702,18.65045 0.07562,18.86769c0.22095,0.57797 25.13971,0.28043 28.50885,-0.34042zm138.32727,7.36363l0,-54.69085l34.61823,0l34.61816,0l0,5.23637l0,5.23636l-28.79999,0l-28.79999,0l0,18.32727l0,18.32729l26.90906,0l26.90912,0l0,5.38181l0,5.38182l-26.90912,0l-26.90906,0l0,20.36363l0,20.36365l29.67273,0l29.67267,0l0,5.38182l0,5.38181l-35.49084,0l-35.49097,0l0,-54.69096z"/>
  </g>
 </g>
</svg>