<svg width="2186" height="300" xmlns="http://www.w3.org/2000/svg" xml:space="preserve" version="1.1">

 <g>
  <title>Layer 1</title>
  <g id="layer1">
   <path fill="#ffffff" id="path1" d="m138.65025,290.92508c-30.5744,-1.45465 -58.64319,-12.26135 -81.80841,-31.49695c-3.72803,-3.09561 -11.29169,-10.57861 -14.80396,-14.64612c-15.03729,-17.41422 -25.87042,-39.27464 -30.68146,-61.91248c-4.90179,-23.06509 -4.40735,-50.44174 1.30457,-72.23124c5.3252,-20.31446 14.78766,-38.83764 27.91858,-54.65199c3.29425,-3.96749 12.59814,-13.33125 16.26227,-16.36692c19.58624,-16.22691 43.10419,-26.64522 68.13025,-30.1813c8.13214,-1.14905 12.26526,-1.41591 21.96039,-1.41793c9.74249,-0.002 13.81531,0.26222 22.09271,1.43339c25.08759,3.54965 49.0119,14.11306 68.52704,30.25711c6.67969,5.52578 15.34161,14.64835 20.6187,21.71513c12.51102,16.75402 21.26913,36.53 25.30978,57.15001c4.73505,24.16336 3.65808,51.4668 -2.92023,74.03561c-6.06995,20.82492 -17.01428,40.37117 -30.91493,55.21332c-11.68152,12.47281 -24.13391,21.68176 -39.3454,29.09723c-21.89056,10.67151 -45.34204,15.25482 -71.6499,14.00311zm21.776,-26.53986c10.55048,-1.20621 19.40802,-3.37518 28.17175,-6.89856c8.46497,-3.4032 17.93451,-8.76553 24.74487,-14.01227c13.54816,-10.4375 23.78693,-23.12326 31.34271,-38.83331c11.85579,-24.65079 15.26067,-53.41771 9.67006,-81.69968c-2.75533,-13.93866 -8.4261,-28.24239 -15.89168,-40.08436c-8.72284,-13.83637 -20.76794,-25.50388 -35.15753,-34.05536c-16.63513,-9.886 -35.24188,-14.75683 -56.37396,-14.75743c-18.95813,-0.00055 -34.59467,3.50048 -49.60938,11.10757c-14.7345,7.46513 -25.79199,16.53895 -35.63043,29.23854c-7.51672,9.70264 -13.72156,21.51594 -17.85376,33.99158c-8.52191,25.72876 -8.55505,56.26602 -0.08881,81.76363c8.99506,27.09013 26.01892,48.21153 49.5849,61.51967c14.00897,7.91116 27.0517,11.66104 45.92456,13.20374c2.92914,0.23944 17.81732,-0.10083 21.16669,-0.48376zm774.56764,26.54773c-5.81818,-0.27982 -14.23273,-1.22061 -18.91766,-2.11505c-10.82758,-2.06717 -19.85809,-4.74646 -28.72998,-8.52396c-30.33911,-12.91782 -53.33752,-34.59668 -68.12817,-64.21921c-10.10876,-20.24583 -15.05048,-42.09447 -15.05048,-66.54269c0,-25.01431 5.03094,-46.74435 15.68158,-67.73332c15.94122,-31.41491 42.29144,-54.47321 75.58954,-66.14608c10.43121,-3.65675 20.87421,-5.87834 33.73431,-7.17649c6.30847,-0.6368 21.45142,-0.63439 27.91357,0.0044c24.89587,2.46114 45.9696,9.86587 65.86603,23.14362c30.62927,20.44017 51.71814,54.34037 57.79492,92.90473c2.05847,13.06329 2.36682,29.77676 0.80811,43.78854c-2.57556,23.15182 -10.75903,45.44244 -23.604,64.29373c-15.0083,22.02625 -35.91809,38.61414 -61.44208,48.74268c-18.64191,7.39755 -39.46295,10.63971 -61.51569,9.57907l0,0.00003zm21.80609,-26.56274c15.37787,-1.8158 27.66089,-5.72046 40.3877,-12.83893c12.54834,-7.01859 23.66711,-16.67365 32.17365,-27.93819c13.41357,-17.76277 21.42603,-39.55089 23.37549,-63.56465c1.55627,-19.17096 -1.28552,-39.67014 -7.85254,-56.64462c-3.38489,-8.74911 -6.53833,-14.91259 -11.40833,-22.29753c-4.31506,-6.54326 -8.17859,-11.21107 -14.05072,-16.97553c-12.95276,-12.71552 -29.94067,-22.30065 -47.25739,-26.6642c-16.12885,-4.06421 -35.70477,-4.53721 -52.6521,-1.27222c-19.62738,3.78134 -38.49762,13.84583 -52.78784,28.15457c-14.36816,14.38669 -24.15973,32.2685 -29.48663,53.85001c-2.95465,11.9704 -4.22479,26.31998 -3.44263,38.89375c1.27496,20.49446 6.25989,37.85555 15.68799,54.63646c9.38391,16.70226 23.7666,30.97876 40.52814,40.22885c14.19904,7.83597 26.73907,11.40952 45.37604,12.93091c3.01599,0.24619 18.07056,-0.10446 21.40918,-0.49866l0,-0.00003zm902.25128,26.56046c-19.81226,-1.06638 -37.62012,-7.08942 -51.8584,-17.53949c-7.67896,-5.63593 -14.70776,-12.65103 -21.23413,-21.19269l-2.17114,-2.8414l0.65625,-0.52563c0.36108,-0.28912 1.01343,-0.84299 1.4502,-1.23087c1.01807,-0.90475 9.04688,-7.80714 13.31311,-11.44565l3.29065,-2.8063l4.79492,4.80316c17.26099,17.29037 31.71387,25.00034 50.62695,27.00754c20.46216,2.17157 40.6731,-4.20309 53.25977,-16.79852c9.08081,-9.08688 13.48853,-20.1712 13.48853,-33.91962c0,-9.54561 -2.0105,-16.94315 -6.35132,-23.36955c-5.46423,-8.08922 -13.71167,-14.73466 -24.96094,-20.11217c-5.3269,-2.54645 -7.32532,-3.28915 -36.15918,-13.43845c-11.17212,-3.93256 -24.38525,-9.19962 -29.49841,-11.75896c-15.29993,-7.658 -26.35608,-18.19121 -33.07434,-31.51009c-4.60791,-9.13523 -6.53882,-18.50982 -6.54834,-31.79179c-0.01245,-17.31258 4.3186,-30.32739 14.43213,-43.36918c2.75781,-3.55628 8.5,-9.34805 12.09351,-12.19831c12.80249,-10.15372 28.47803,-16.16775 48.02197,-18.42406c5.42261,-0.62601 18.646,-0.61657 24.47412,0.01749c16.09668,1.75124 27.17114,5.32137 38.89368,12.53837c9.27234,5.70853 16.60291,12.50801 23.32996,21.63977c0.13306,0.1804 -0.75269,1.12858 -2.3645,2.53146c-1.41724,1.23365 -5.5564,4.85431 -9.19788,8.04591c-3.6416,3.1916 -6.8114,5.95391 -7.04431,6.13847c-0.36523,0.28935 -0.89233,-0.13029 -3.83008,-3.04868c-12.38184,-12.30017 -24.30127,-19.097 -38.33179,-21.85782c-6.62231,-1.30311 -17.89697,-1.70267 -24.07715,-0.85326c-15.02734,2.06541 -26.28345,7.38548 -35.24829,16.65993c-4.8717,5.04009 -8.94873,11.52605 -10.7688,17.13189c-3.29028,10.13479 -2.97827,23.24484 0.77295,32.46379c2.87036,7.05473 9.51489,14.42313 18.02124,19.9846c6.29175,4.1136 13.1759,7.22159 24.70935,11.15559c2.40125,0.81898 5.73499,1.96681 7.40845,2.55075c1.67346,0.58392 4.53088,1.57878 6.34998,2.21083c18.9198,6.5739 32.81421,11.98849 38.8938,15.15685c12.66553,6.60052 21.82849,14.38596 28.2439,23.99748c6.09985,9.1389 9.1604,18.2372 10.24707,30.46111c1.33813,15.05534 -1.07385,30.02434 -6.62903,41.1382c-7.41699,14.83914 -18.41199,26.11685 -32.95789,33.80591c-11.55627,6.10873 -26.00781,9.78824 -41.68164,10.61246c-5.48462,0.28845 -7.11694,0.28601 -12.78491,-0.01907zm-1521.0896,-141.39862l0,-134.54061l16.07343,0.00032l16.07343,0.00032l2.16772,3.10854c1.1922,1.70969 3.67828,5.25165 5.5246,7.87103c1.84631,2.61937 3.89722,5.53641 4.55762,6.48228c0.6604,0.9459 2.70935,3.86293 4.55322,6.4823c1.84381,2.61938 5.6098,7.97718 8.36877,11.90625c2.75897,3.92907 7.44336,10.59657 10.40979,14.81667c2.96637,4.2201 7.3576,10.47089 9.75836,13.89063c2.4007,3.41974 6.28802,8.95615 8.63849,12.30313c2.35046,3.34698 6.94806,9.89542 10.2168,14.55208c3.2688,4.65667 7.95465,11.32416 10.41296,14.81668c4.38641,6.23169 9.90985,14.09543 16.53998,23.54791c5.41504,7.72009 15.4314,21.97995 23.50983,33.46979c4.14374,5.89359 8.08005,11.49881 8.74734,12.45604c0.6673,0.9572 2.82062,4.02614 4.78516,6.81987c3.51645,5.00061 6.64859,9.46046 16.00748,22.79285c2.6048,3.71078 6.70648,9.54483 9.11481,12.96457l4.37872,6.21771l0.06641,-112.24948l0.06653,-112.24947l14.15491,0l14.15491,0l0,134.54268l0,134.54263l-16.06348,-0.06818l-16.06342,-0.06821l-3.23218,-4.63019c-1.77759,-2.54666 -4.6012,-6.59476 -6.27466,-8.99588c-1.6734,-2.40109 -5.70486,-8.1756 -8.95877,-12.83228c-6.23856,-8.92798 -10.11093,-14.47424 -21.24417,-30.42706c-3.75757,-5.38426 -9.01498,-12.91496 -11.68307,-16.73489c-8.59036,-12.29883 -25.96255,-37.18266 -34.12589,-48.88177c-3.35083,-4.80219 -10.00055,-14.32721 -14.7771,-21.16669c-4.77655,-6.83948 -10.05334,-14.39993 -11.72626,-16.80103c-1.67285,-2.40108 -3.6261,-5.19907 -4.34045,-6.2177c-1.55914,-2.22331 -11.04266,-15.80078 -13.12109,-18.78542c-0.81067,-1.16418 -4.50586,-6.46246 -8.21149,-11.77396c-3.70563,-5.31151 -8.29651,-11.89509 -10.20203,-14.63017c-1.90546,-2.73508 -4.29791,-6.15501 -5.31659,-7.59985c-1.01862,-1.44484 -2.44739,-3.49329 -3.17499,-4.55212l-1.32294,-1.92515l-0.06647,113.04321l-0.06653,113.04324l-14.15491,0l-14.15491,0l0.00012,-134.54062zm340.51874,12.9646l0,-121.57604l-43.9209,0l-43.92078,0l0,-12.96459l0,-12.96458l101.99689,0l101.99683,0l0,12.96458l0,12.96459l-43.92084,0l-43.92078,0l0,121.57604l0,121.57602l-14.15521,0l-14.15521,0l0,-121.57602zm517.51471,120.58609c-0.17456,-0.54694 -1.54285,-4.26868 -3.04053,-8.27048c-1.4978,-4.00183 -4.23181,-11.32419 -6.07568,-16.27188c-1.84387,-4.94769 -4.46411,-11.97238 -5.82275,-15.61041c-1.35864,-3.638 -3.95703,-10.60316 -5.77429,-15.4781c-24.38306,-65.41206 -59.87122,-160.6089 -62.13892,-166.68751c-1.60156,-4.29287 -4.22083,-11.31755 -5.82056,-15.61042c-1.59985,-4.29286 -4.19739,-11.25802 -5.77234,-15.47812c-4.80835,-12.88345 -5.29248,-14.20533 -5.29248,-14.44907c0,-0.13448 6.16772,-0.23532 14.39392,-0.23532l14.3938,0l0.26184,0.72761c0.14392,0.40018 1.63391,4.35902 3.31091,8.79739c1.67712,4.4384 9.02234,24.02417 16.32263,43.52396c7.30042,19.49979 18.86951,50.39651 25.70923,68.65938c6.8396,18.26285 16.24512,43.38504 20.90112,55.82707c4.65601,12.44205 10.23425,27.32486 12.39624,33.07292c2.16199,5.74808 4.52197,12.0584 5.24451,14.0229c1.9989,5.43489 1.90002,5.21675 2.15662,4.75835c0.12341,-0.22058 0.84143,-2.06607 1.5957,-4.10104c1.93994,-5.23416 16.47913,-44.15532 26.19031,-70.11041c2.01453,-5.38428 5.35046,-14.31396 7.41345,-19.84375c2.06287,-5.52979 5.15674,-13.80464 6.87524,-18.38855c1.71851,-4.58392 4.99158,-13.33499 7.27356,-19.44688c2.28198,-6.11188 5.79639,-15.51781 7.80994,-20.90208c2.01343,-5.38427 6.41687,-17.17145 9.78552,-26.19375c12.17358,-32.60518 14.36279,-38.46193 16.58997,-44.38385l2.26392,-6.01927l14.3811,0l14.38098,0l-0.49512,1.25677c-0.27246,0.69122 -5.57983,14.82989 -11.79431,31.41927c-18.0603,48.21156 -36.29407,96.89952 -45.4314,121.31144c-4.6571,12.44203 -10.05542,26.8486 -11.99622,32.01459c-1.94092,5.166 -7.53638,20.10835 -12.4342,33.20522c-4.89795,13.09685 -10.49414,28.0392 -12.43591,33.20518c-1.94177,5.16602 -4.11829,11.00006 -4.83655,12.9646l-1.30591,3.5719l-14.43298,0.06836l-14.43298,0.06842l-0.31738,-0.99445zm161.9353,-133.55069l0,-134.54061l83.21143,0l83.21143,0l0,12.96458l0,12.96459l-69.18848,0l-69.18848,0l0,45.24374l0,45.24374l64.69055,0l64.69055,0l0,12.9646l0,12.96458l-64.69055,0l-64.69055,0l0,50.40312l0,50.40311l71.5697,0l71.5697,0l0,12.96457l0,12.9646l-85.59253,0l-85.59277,0l0,-134.54062zm218.28125,0l0,-134.54061l42.43628,0c48.19702,0 50.0603,0.05586 62.47095,1.87287c25.49023,3.73196 42.9248,13.57198 54.16858,30.57261c6.81042,10.29723 10.04724,21.64858 10.43933,36.61077c0.34619,13.20116 -1.50464,22.61656 -6.42419,32.68224c-6.99561,14.31308 -17.82483,24.89555 -32.56921,31.82745c-7.86145,3.69589 -20.16077,7.1741 -27.91772,7.89503c-0.9978,0.09276 -1.87878,0.27275 -1.9574,0.40001c-0.07874,0.12726 2.50464,4.60443 5.7406,9.94925c3.23608,5.34483 9.23804,15.25429 13.33765,22.021c4.09985,6.76672 10.58691,17.48236 14.41577,23.81252c3.82898,6.33015 11.24878,18.59358 16.48865,27.25209c16.55444,27.3555 26.15173,43.24393 26.41003,43.72238c0.23706,0.43857 -0.57056,0.46265 -15.30334,0.45596l-15.55359,-0.00699l-37.28516,-62.69919l-37.28516,-62.69919l-21.65088,0l-21.65088,0l0,62.70624l0,62.70624l-14.15503,0l-14.15527,0l0,-134.54068zm90.48865,-16.87752c12.59509,-1.52504 19.93689,-3.43454 27.68225,-7.19975c8.33606,-4.05241 15.00195,-10.41489 18.78796,-17.93299c4.17126,-8.28291 5.44836,-20.85025 3.23254,-31.80849c-2.24536,-11.10307 -9.11084,-20.3571 -19.52368,-26.31585c-7.32153,-4.1899 -16.36816,-6.82694 -28.59277,-8.33476c-6.26233,-0.77242 -12.64063,-0.92817 -38.16602,-0.932l-25.59863,-0.00381l0,46.58137l0,46.58139l29.30273,-0.10123c25.04871,-0.08655 29.82129,-0.16406 32.87561,-0.53389l0,0zm339.45923,16.87752l0,-134.54061l83.07922,0l83.0791,0l0,12.96458l0,12.96459l-69.18848,0l-69.18872,0l0,45.24374l0,45.24374l64.823,0l64.823,0l0,12.9646l0,12.96458l-64.823,0l-64.823,0l0,50.40312l0,50.40311l71.70215,0l71.70215,0l0,12.96457l0,12.9646l-85.59277,0l-85.59265,0l0,-134.54062z"/>
  </g>
 </g>
</svg>